<svg width="35" height="35" viewBox="0 0 35 35" fill="none" xmlns="http://www.w3.org/2000/svg">
<path d="M17.517 2.92237C9.46602 2.91756 2.93547 9.44027 2.93067 17.4913C2.92586 25.5423 9.44857 32.0728 17.4996 32.0776C21.3675 32.084 25.0786 30.549 27.8119 27.8123C30.5463 25.0802 32.0836 21.3741 32.0859 17.5087C32.0907 9.45772 25.568 2.92717 17.517 2.92237ZM17.5175 30.6193C10.2718 30.6242 4.39416 24.7546 4.38918 17.5089C4.38428 10.2633 10.254 4.38559 17.4996 4.3807C20.9807 4.37447 24.3208 5.75572 26.7808 8.21879C29.2416 10.6773 30.6255 14.0125 30.6278 17.4911C30.6328 24.7367 24.763 30.6143 17.5175 30.6193ZM18.5306 17.5L23.1705 12.8601C23.4484 12.5766 23.4484 12.1229 23.1705 11.8394C22.8887 11.5518 22.4271 11.5472 22.1395 11.829L17.4996 16.4689L12.8597 11.8291C12.5762 11.5513 12.1225 11.5513 11.839 11.8291C11.5514 12.1109 11.5468 12.5725 11.8286 12.8601L16.4685 17.5L11.8286 22.1399C11.6919 22.2766 11.6152 22.462 11.6151 22.6554C11.6151 23.058 11.9415 23.3845 12.3441 23.3846C12.5376 23.3849 12.7231 23.308 12.8597 23.171L17.4996 18.5311L22.1395 23.171C22.276 23.308 22.4616 23.3849 22.655 23.3846C22.8483 23.3845 23.0337 23.3078 23.1704 23.1712C23.4552 22.8864 23.4552 22.4247 23.1705 22.1399L18.5306 17.5Z" fill="black" fill-opacity="0.5"/>
</svg>
