<svg width="40" height="40" viewBox="0 0 40 40" fill="none" xmlns="http://www.w3.org/2000/svg">
<path d="M22.3492 20.0001L32.8492 9.51673C33.1631 9.20289 33.3394 8.77723 33.3394 8.3334C33.3394 7.88956 33.1631 7.4639 32.8492 7.15006C32.5354 6.83623 32.1098 6.65991 31.6659 6.65991C31.2221 6.65991 30.7964 6.83623 30.4826 7.15006L19.9992 17.6501L9.51591 7.15006C9.20207 6.83623 8.77642 6.65991 8.33258 6.65991C7.88874 6.65991 7.46309 6.83623 7.14925 7.15006C6.83541 7.4639 6.65909 7.88956 6.65909 8.3334C6.65909 8.77723 6.83541 9.20289 7.14925 9.51673L17.6492 20.0001L7.14925 30.4834C6.99303 30.6383 6.86904 30.8227 6.78443 31.0258C6.69981 31.2289 6.65625 31.4467 6.65625 31.6667C6.65625 31.8868 6.69981 32.1046 6.78443 32.3077C6.86904 32.5108 6.99303 32.6951 7.14925 32.8501C7.30419 33.0063 7.48852 33.1303 7.69162 33.2149C7.89472 33.2995 8.11256 33.3431 8.33258 33.3431C8.5526 33.3431 8.77044 33.2995 8.97354 33.2149C9.17664 33.1303 9.36098 33.0063 9.51591 32.8501L19.9992 22.3501L30.4826 32.8501C30.6375 33.0063 30.8219 33.1303 31.025 33.2149C31.2281 33.2995 31.4459 33.3431 31.6659 33.3431C31.8859 33.3431 32.1038 33.2995 32.3069 33.2149C32.51 33.1303 32.6943 33.0063 32.8492 32.8501C33.0055 32.6951 33.1295 32.5108 33.2141 32.3077C33.2987 32.1046 33.3422 31.8868 33.3422 31.6667C33.3422 31.4467 33.2987 31.2289 33.2141 31.0258C33.1295 30.8227 33.0055 30.6383 32.8492 30.4834L22.3492 20.0001Z" fill="#F7D22D"/>
</svg>
