<svg width="33" height="33" viewBox="0 0 33 33" fill="none" xmlns="http://www.w3.org/2000/svg">
<g clip-path="url(#clip0_2147_44)">
<path d="M5.98948 0.0793457L0.238281 26.4159H7.85367L9.71785 17.6899H15.1517C20.3477 17.6899 24.6611 14.4871 25.8212 9.04329C27.14 2.88058 22.7175 0.0793457 18.9198 0.0793457H5.98948ZM12.415 5.43391H16.1433C18.0026 5.43391 19.2668 7.04524 18.7215 9.04329C18.2554 11.0463 16.297 12.6527 14.3585 12.6527H10.7888L12.415 5.43391ZM28.5977 6.98079C28.5927 7.77406 28.5183 8.62682 28.32 9.55891C27.8044 11.9833 26.7632 14.1053 25.3056 15.7861C24.6908 17.5957 22.8663 18.9988 21.0616 18.9988H20.9823C19.2321 19.797 17.2787 20.2284 15.1517 20.2284H11.7803L10.3525 26.9315L9.91617 28.9543H7.814L6.98107 32.762H14.5568L16.421 24.0361H21.8549C27.0508 24.0361 31.3989 20.8333 32.564 15.3894C33.5407 10.8133 31.3394 8.08145 28.5977 6.98079Z" fill="black" fill-opacity="0.1"/>
</g>
<defs>
<clipPath id="clip0_2147_44">
<rect width="33" height="33" fill="white"/>
</clipPath>
</defs>
</svg>
