<svg width="45" height="45" viewBox="0 0 45 45" fill="none" xmlns="http://www.w3.org/2000/svg">
<path d="M4.5 6.30005C2.01797 6.30005 0 8.31802 0 10.8V34.2C0 36.6821 2.01797 38.7001 4.5 38.7001H40.5C42.982 38.7001 45 36.6821 45 34.2V10.8C45 8.31802 42.982 6.30005 40.5 6.30005H4.5ZM26.7187 17.4657C27.9457 17.4657 29.2219 17.9719 29.2219 17.9719L28.7719 20.1657C28.7719 20.1657 27.8016 19.5188 26.9437 19.5188C25.6219 19.5188 25.1437 19.9512 25.1437 20.5313C25.1437 21.6668 28.8281 21.8672 28.8281 24.4125C28.8281 26.529 26.202 27.9844 24.3 27.9844C22.398 27.9844 21.4031 27.4219 21.4031 27.4219L21.8812 25.2844C21.8812 25.2844 22.8762 25.875 24.4125 25.875C25.9453 25.875 26.1562 25.2211 26.1562 24.9469C26.1562 23.3227 22.5 23.7762 22.5 20.6157C22.5 18.8684 23.9273 17.4657 26.7187 17.4657ZM14.8219 17.6625H17.6625L13.6125 27.675H10.6875L8.55 19.575C8.55 19.575 10.7965 20.7211 12.1781 23.8219C12.2379 24.1981 12.4031 24.8063 12.4031 24.8063L14.8219 17.6625ZM18.7031 17.6625H21.4031L19.8 27.675H17.1281L18.7031 17.6625ZM33.1312 17.6625H35.9156L37.9687 27.675H35.55L35.2687 26.2407H31.95L31.4156 27.675H28.7719L33.1312 17.6625ZM5.625 17.6907H9.73125C10.7789 17.6907 11.1656 18.675 11.1656 18.675L12.0656 23.2313C10.8492 19.3079 5.625 17.6907 5.625 17.6907ZM34.1437 20.5594L32.6812 24.3282H34.875L34.1437 20.5594Z" fill="black" fill-opacity="0.1"/>
</svg>
