<svg width="18" height="18" viewBox="0 0 18 18" fill="none" xmlns="http://www.w3.org/2000/svg">
<path d="M0 9C0 5.03775 0 3.05625 1.10212 1.72838C1.29105 1.5007 1.5007 1.29105 1.72838 1.10212C3.05625 0 5.03775 0 9 0C12.9622 0 14.9437 0 16.2716 1.10212C16.4993 1.29106 16.7089 1.50071 16.8979 1.72838C18 3.05625 18 5.03775 18 9C18 12.9622 18 14.9437 16.8979 16.2716C16.7089 16.4993 16.4993 16.7089 16.2716 16.8979C14.9437 18 12.9622 18 9 18C5.03775 18 3.05625 18 1.72838 16.8979C1.50071 16.7089 1.29106 16.4993 1.10212 16.2716C0 14.9437 0 12.9622 0 9Z" fill="#FFE033"/>
<path d="M13.7814 12.5801C12.6999 13.5348 11.2891 14.1108 9.74938 14.1108C6.51988 14.1108 4.10001 11.6096 4.10001 8.75058C4.10001 6.06183 6.24351 3.86695 8.90151 3.86695C11.4095 3.86695 13.2193 5.8117 13.2193 7.91695C13.2193 9.89095 11.6623 11.4918 9.74938 11.4918C7.99926 11.4918 6.76401 10.1658 6.76401 8.75058C6.76401 7.48008 7.74651 6.48558 8.90226 6.48558C9.92526 6.48558 10.556 7.23145 10.556 7.91695C10.556 8.51245 10.1375 8.8717 9.74976 8.8717C9.61213 8.8717 9.55963 8.84283 9.50451 8.8087C9.62976 8.64745 9.69201 8.43858 9.66013 8.22033C9.64567 8.12048 9.61166 8.02446 9.56006 7.93776C9.50846 7.85107 9.44027 7.77539 9.3594 7.71507C9.27853 7.65475 9.18656 7.61096 9.08875 7.58621C8.99094 7.56146 8.88921 7.55623 8.78938 7.57083C8.43013 7.62445 8.20213 7.86858 8.08926 8.0497C7.95955 8.26034 7.89172 8.50321 7.89351 8.75058C7.89351 9.76083 8.83476 10.4137 9.74976 10.4137C11.0851 10.4148 12.0898 9.2482 12.0898 7.91695C12.0898 6.28795 10.6779 4.94395 8.90226 4.94395C6.83976 4.94395 5.23026 6.68995 5.23026 8.7502C5.23026 11.0857 7.22113 13.0327 9.75013 13.0327C12.5461 13.0327 14.7538 10.7047 14.7538 7.9162C14.7538 4.91845 12.2158 2.32495 8.90226 2.32495C5.37726 2.32495 2.56738 5.2312 2.56738 8.75058C2.56738 12.5081 5.72188 15.6528 9.75013 15.6528C11.6773 15.6528 13.445 14.9291 14.7939 13.7388L13.7814 12.5801Z" fill="black"/>
</svg>
