<svg width="35" height="35" viewBox="0 0 35 35" fill="none" xmlns="http://www.w3.org/2000/svg">
<path d="M17.5003 2.91675C9.44595 2.91675 2.91699 9.44571 2.91699 17.5001C2.91699 25.5545 9.44595 32.0834 17.5003 32.0834C25.5547 32.0834 32.0837 25.5545 32.0837 17.5001C32.0837 9.44571 25.5547 2.91675 17.5003 2.91675Z" fill="url(#paint0_linear_2147_27)"/>
<path d="M19.4734 21.3653H23.2476L23.8404 17.5313H19.4734V15.4357C19.4734 13.8432 19.994 12.4308 21.4837 12.4308H23.8776V9.08537C23.4568 9.0285 22.5673 8.90454 20.8865 8.90454C17.3763 8.90454 15.3186 10.7581 15.3186 14.9814V17.532H11.71V21.366H15.3179V31.9039C16.0325 32.0104 16.7565 32.0833 17.4995 32.0833C18.1711 32.0833 18.8266 32.022 19.4734 31.9345V21.3653Z" fill="white"/>
<defs>
<linearGradient id="paint0_linear_2147_27" x1="7.28689" y1="7.28664" x2="29.6154" y2="29.6152" gradientUnits="userSpaceOnUse">
<stop stop-color="#2AA4F4"/>
<stop offset="1" stop-color="#007AD9"/>
</linearGradient>
</defs>
</svg>
