<svg width="35" height="35" viewBox="0 0 35 35" fill="none" xmlns="http://www.w3.org/2000/svg">
<path d="M17.5003 2.91675C13.6326 2.91675 9.92326 4.4532 7.18835 7.18811C4.45345 9.92301 2.91699 13.6323 2.91699 17.5001C2.91699 21.3678 4.45345 25.0771 7.18835 27.8121C9.92326 30.547 13.6326 32.0834 17.5003 32.0834C21.3681 32.0834 25.0774 30.547 27.8123 27.8121C30.5472 25.0771 32.0837 21.3678 32.0837 17.5001C32.0837 13.6323 30.5472 9.92301 27.8123 7.18811C25.0774 4.4532 21.3681 2.91675 17.5003 2.91675Z" fill="#03A9F4"/>
<path d="M24.4271 16.0417C22.2031 16.0417 20.0703 16.9251 18.4977 18.4977C16.9251 20.0703 16.0417 22.2031 16.0417 24.4271C16.0417 26.651 16.9251 28.7839 18.4977 30.3565C20.0703 31.929 22.2031 32.8125 24.4271 32.8125C26.651 32.8125 28.7839 31.929 30.3565 30.3565C31.929 28.7839 32.8125 26.651 32.8125 24.4271C32.8125 22.2031 31.929 20.0703 30.3565 18.4977C28.7839 16.9251 26.651 16.0417 24.4271 16.0417ZM10.5729 2.1875C9.47173 2.1875 8.38132 2.4044 7.36396 2.8258C6.34659 3.24721 5.42219 3.86487 4.64353 4.64353C3.86487 5.42219 3.24721 6.34659 2.8258 7.36396C2.4044 8.38132 2.1875 9.47173 2.1875 10.5729C2.1875 11.6741 2.4044 12.7645 2.8258 13.7819C3.24721 14.7992 3.86487 15.7236 4.64353 16.5023C5.42219 17.281 6.34659 17.8986 7.36396 18.32C8.38132 18.7414 9.47173 18.9583 10.5729 18.9583C11.6741 18.9583 12.7645 18.7414 13.7819 18.32C14.7992 17.8986 15.7236 17.281 16.5023 16.5023C17.281 15.7236 17.8986 14.7992 18.32 13.7819C18.7414 12.7645 18.9583 11.6741 18.9583 10.5729C18.9583 9.47173 18.7414 8.38132 18.32 7.36396C17.8986 6.34659 17.281 5.42219 16.5023 4.64353C15.7236 3.86487 14.7992 3.24721 13.7819 2.8258C12.7645 2.4044 11.6741 2.1875 10.5729 2.1875Z" fill="#03A9F4"/>
<path d="M17.939 26.25C13.125 26.25 10.9375 23.843 10.9375 22.0201C10.9375 21.0715 11.5923 20.4167 12.5409 20.4167C14.5833 20.4167 14.0736 23.4077 17.9382 23.4077C19.9063 23.4077 21 22.314 21 21.2202C21 20.5625 20.7069 19.8333 19.3966 19.4688L15.093 18.375C11.6667 17.5 11.0119 15.6027 11.0119 13.7798C11.0119 10.0625 14.4382 8.75 17.6458 8.75C20.6361 8.75 24.0625 10.3534 24.0625 12.5409C24.0625 13.4896 23.3333 14.0736 22.3847 14.0736C20.6361 14.0736 20.9264 11.593 17.4256 11.593C15.6771 11.593 14.657 12.3966 14.657 13.564C14.657 14.7292 16.0409 15.0937 17.2805 15.3869L20.4903 16.116C23.9881 16.9159 24.7917 18.9583 24.7917 20.9264C24.7173 23.9881 22.5298 26.25 17.939 26.25Z" fill="white"/>
</svg>
