<svg width="35" height="35" viewBox="0 0 35 35" fill="none" xmlns="http://www.w3.org/2000/svg">
<path d="M17.5003 2.91675C13.6326 2.91675 9.92326 4.4532 7.18835 7.18811C4.45345 9.92301 2.91699 13.6323 2.91699 17.5001C2.91699 21.3678 4.45345 25.0771 7.18835 27.8121C9.92326 30.547 13.6326 32.0834 17.5003 32.0834C21.3681 32.0834 25.0774 30.547 27.8123 27.8121C30.5472 25.0771 32.0837 21.3678 32.0837 17.5001C32.0837 13.6323 30.5472 9.92301 27.8123 7.18811C25.0774 4.4532 21.3681 2.91675 17.5003 2.91675Z" fill="#29B6F6"/>
<path d="M24.7555 10.9374L22.0241 24.8835C22.0241 24.8835 21.9067 25.5208 21.1163 25.5208C20.6963 25.5208 20.4797 25.321 20.4797 25.321L14.5632 20.4115L11.6685 18.9524L7.95335 17.9644C7.95335 17.9644 7.29199 17.7734 7.29199 17.2265C7.29199 16.7708 7.9723 16.5535 7.9723 16.5535L23.5152 10.3789C23.5152 10.3789 23.9899 10.2075 24.3363 10.2083C24.5492 10.2083 24.792 10.2994 24.792 10.5728C24.792 10.7551 24.7555 10.9374 24.7555 10.9374Z" fill="white"/>
<path d="M16.7709 22.2433L14.2728 24.7035C14.2728 24.7035 14.1642 24.7873 14.0191 24.791C13.9687 24.7924 13.9148 24.7844 13.8594 24.7596L14.5623 20.4102L16.7709 22.2433Z" fill="#B0BEC5"/>
<path d="M21.8002 13.2678C21.677 13.1074 21.4495 13.0783 21.2891 13.2L11.667 18.9583C11.667 18.9583 13.2026 23.2545 13.4367 23.9983C13.6715 24.7427 13.8596 24.7602 13.8596 24.7602L14.5625 20.4108L21.7317 13.7783C21.8921 13.6565 21.922 13.4283 21.8002 13.2678Z" fill="#CFD8DC"/>
</svg>
