<svg width="35" height="35" viewBox="0 0 35 35" fill="none" xmlns="http://www.w3.org/2000/svg">
<path d="M17.4997 3.64575C15.5754 3.64575 9.71947 3.64575 6.48197 6.60179C4.55405 8.52242 3.64551 11.2976 3.64551 15.3124V17.4999C3.64551 21.5147 4.55405 24.2899 6.50457 26.2324C7.47582 27.1184 8.79999 27.8264 10.4187 28.3156L10.9372 28.4717V32.3567C10.9372 32.8124 11.0692 32.8124 11.1129 32.8124C11.2026 32.8124 11.3462 32.784 11.6189 32.5419C11.6846 32.477 12.1658 31.9564 14.5064 29.3343L14.7427 29.0696L15.0963 29.0922C15.8802 29.1411 16.6888 29.1666 17.4997 29.1666C19.4239 29.1666 25.2799 29.1666 28.5174 26.2098C30.4446 24.2892 31.3538 21.514 31.3538 17.4999V15.3124C31.3538 11.2976 30.4453 8.52242 28.4948 6.57992C25.2799 3.64575 19.4239 3.64575 17.4997 3.64575Z" fill="white"/>
<path d="M24.3911 21.0393C23.581 20.3568 23.2069 20.1504 22.0884 19.4789C21.6224 19.1996 20.9122 18.9583 20.5396 18.9583C20.2851 18.9583 19.9803 19.1529 19.7937 19.3396C19.3153 19.8179 19.1586 20.4166 18.32 20.4166C17.4997 20.4166 16.0669 19.5817 15.0388 18.5025C13.9596 17.4744 13.1247 16.0416 13.1247 15.2213C13.1247 14.3827 13.7124 14.215 14.1908 13.736C14.3774 13.55 14.5831 13.2452 14.5831 12.9908C14.5831 12.6181 14.3417 11.9189 14.0624 11.4529C13.3909 10.3337 13.1852 9.95961 12.502 9.15023C12.2709 8.87606 12.0076 8.75065 11.732 8.74992C11.2661 8.74919 10.6543 8.98034 10.2401 9.28877C9.61743 9.75325 8.96629 10.3854 8.79202 11.1729C8.76868 11.2801 8.75483 11.388 8.75045 11.496C8.71691 12.3163 9.0392 13.149 9.38702 13.8541C10.2059 15.5159 11.2894 17.1244 12.4685 18.5609C12.8455 19.0202 13.256 19.4475 13.6811 19.8602C14.0938 20.2846 14.5211 20.6951 14.9805 21.0728C16.4169 22.2519 18.0255 23.3354 19.6872 24.1543C20.3858 24.4985 21.2083 24.8149 22.0206 24.7916C22.1365 24.7879 22.2524 24.7748 22.3684 24.7493C23.1559 24.5758 23.7881 23.9239 24.2525 23.3012C24.561 22.887 24.7921 22.276 24.7914 21.8093C24.7907 21.5337 24.6652 21.2704 24.3911 21.0393ZM24.7914 17.4999C24.3889 17.4999 24.0622 17.1733 24.0622 16.7708V16.0416C24.0622 12.4235 21.1178 9.47909 17.4997 9.47909C17.0972 9.47909 16.7706 9.15242 16.7706 8.74992C16.7706 8.34742 17.0972 8.02075 17.4997 8.02075C21.9221 8.02075 25.5206 11.6192 25.5206 16.0416V16.7708C25.5206 17.1733 25.1939 17.4999 24.7914 17.4999ZM20.3128 16.0416C19.9891 16.0416 19.6931 15.8243 19.6077 15.4962C19.408 14.7298 18.81 14.1312 18.0466 13.9343C17.6565 13.8329 17.4224 13.4355 17.5231 13.0454C17.6237 12.6561 18.0203 12.422 18.4119 12.5219C19.6865 12.8522 20.6855 13.8504 21.0187 15.1279C21.12 15.518 20.8867 15.9154 20.4973 16.0175C20.4353 16.0336 20.3734 16.0416 20.3128 16.0416Z" fill="#7E57C2"/>
<path d="M22.6041 16.7709C22.2016 16.7709 21.875 16.4443 21.875 16.0418C21.875 13.7172 20.0564 11.7995 17.7348 11.677C17.3323 11.6558 17.0238 11.3124 17.045 10.9106C17.0661 10.5081 17.4154 10.1989 17.8113 10.2208C20.9081 10.3842 23.3333 12.9413 23.3333 16.0418C23.3333 16.4443 23.0066 16.7709 22.6041 16.7709Z" fill="#7E57C2"/>
<path d="M17.4997 2.91675C14.2185 2.91675 9.10555 3.21862 5.99055 6.06383C3.78846 8.25644 2.91638 11.3321 2.91638 15.3126C2.91638 15.6422 2.91492 16.0097 2.91784 16.4063C2.91492 16.8023 2.91638 17.1698 2.91638 17.4994C2.91638 21.4799 3.78846 24.5555 5.99055 26.7481C7.17617 27.8309 8.65492 28.5433 10.208 29.0129V32.3569C10.208 33.5206 10.9729 33.5417 11.1129 33.5417H11.1195C11.4797 33.5403 11.7911 33.3638 12.1032 33.0867C12.2205 32.9825 13.5761 31.4716 15.0504 29.8194C15.9284 29.8755 16.7625 29.8959 17.499 29.8959C20.7802 29.8959 25.8924 29.5933 29.0082 26.7481C31.2095 24.5562 32.0823 21.4799 32.0823 17.4994C32.0823 17.1698 32.0838 16.8023 32.0809 16.4056C32.0838 16.0089 32.0823 15.6422 32.0823 15.3119C32.0823 11.3313 31.2102 8.25571 29.0082 6.0631C25.8932 3.21862 20.781 2.91675 17.4997 2.91675ZM29.8955 17.2456V17.4994C29.8955 21.0766 29.1336 23.5142 27.4995 25.1644C24.6689 27.7084 19.2767 27.7084 17.499 27.7084C16.9579 27.7084 16.08 27.7077 15.0439 27.6355C14.7559 27.9592 11.6664 31.4148 11.6664 31.4148V27.1397C10.1322 26.7714 8.61628 26.1677 7.49992 25.1651C5.86586 23.5142 5.10388 21.0766 5.10388 17.4994V17.2456C5.10388 16.9897 5.10315 16.7133 5.10534 16.3903C5.10315 16.0986 5.10315 15.823 5.10388 15.5663V15.3126C5.10388 11.7353 5.86586 9.29769 7.49992 7.64758C10.3298 5.10352 15.7227 5.10352 17.4997 5.10352C19.2767 5.10352 24.6689 5.10352 27.4988 7.64758C29.1336 9.29769 29.8948 11.7353 29.8948 15.3126V15.5663C29.8948 15.8223 29.8955 16.0986 29.8934 16.4216C29.8955 16.714 29.8955 16.9897 29.8955 17.2456Z" fill="#7E57C2"/>
</svg>
