<svg width="35" height="35" viewBox="0 0 35 35" fill="none" xmlns="http://www.w3.org/2000/svg">
<path d="M17.5003 2.91675C13.6326 2.91675 9.92326 4.4532 7.18835 7.18811C4.45345 9.92301 2.91699 13.6323 2.91699 17.5001C2.91699 21.3678 4.45345 25.0771 7.18835 27.8121C9.92326 30.547 13.6326 32.0834 17.5003 32.0834C21.3681 32.0834 25.0774 30.547 27.8123 27.8121C30.5472 25.0771 32.0837 21.3678 32.0837 17.5001C32.0837 13.6323 30.5472 9.92301 27.8123 7.18811C25.0774 4.4532 21.3681 2.91675 17.5003 2.91675Z" fill="#1976D2"/>
<path d="M26.2041 13.1548C26.2376 13.0447 26.2536 12.9426 26.2493 12.8515C26.2383 12.5875 26.0568 12.3958 25.6295 12.3958H23.7205C23.2385 12.3958 23.0161 12.6874 22.8864 12.9798C22.8864 12.9798 21.6964 15.4291 20.3248 17.0442C19.88 17.5116 19.654 17.4999 19.4133 17.4999C19.2843 17.4999 18.9583 17.3439 18.9583 16.9159V13.1351C18.9583 12.6291 18.8322 12.3958 18.4246 12.3958H15.0347C14.7379 12.3958 14.5833 12.6291 14.5833 12.8631C14.5833 13.3495 15.2381 13.4662 15.3125 14.829V17.4708C15.3125 18.1124 15.2009 18.2291 14.9603 18.2291C14.3114 18.2291 13.0339 16.0416 12.1785 13.1745C11.9933 12.6101 11.8081 12.3958 11.3261 12.3958H9.39896C8.8426 12.3958 8.75 12.6685 8.75 12.9601C8.75 13.4859 9.1875 16.3281 11.5755 19.5963C13.3073 21.9661 15.5889 23.3333 17.6086 23.3333C18.8322 23.3333 18.9576 23.0219 18.9576 22.5355V20.3685C18.9583 19.7844 19.0918 19.6874 19.4811 19.6874C19.759 19.6874 20.3255 19.8697 21.4193 21.1458C22.6807 22.6172 22.9097 23.3333 23.633 23.3333H25.542C25.9853 23.3333 26.2398 23.1473 26.25 22.7864C26.2522 22.6945 26.2391 22.5917 26.2092 22.4772C26.0677 22.0572 25.4187 21.0305 24.6094 20.052C24.1609 19.5102 23.7183 18.9736 23.5149 18.6819C23.3785 18.4916 23.3268 18.3574 23.3333 18.2291C23.3399 18.0942 23.4099 17.9659 23.5149 17.7865C23.4959 17.7865 25.9634 14.3222 26.2041 13.1548Z" fill="white"/>
</svg>
